{
	"asset":{
		"generator":"Khronos glTF Blender I/O v4.4.56",
		"version":"2.0"
	},
	"scene":0,
	"scenes":[
		{
			"name":"Scene",
			"nodes":[
				0,
				1,
				2,
				3
			]
		}
	],
	"nodes":[
		{
			"mesh":0,
			"name":"avaturn_body",
			"scale":[
				7.5,
				7.5,
				7.5
			],
			"translation":[
				0,
				-13.046910285949707,
				0
			]
		},
		{
			"mesh":1,
			"name":"avaturn_hair_0",
			"scale":[
				7.5,
				7.5,
				7.5
			],
			"translation":[
				0,
				-13.046910285949707,
				0
			]
		},
		{
			"name":"avaturn_shoes_0"
		},
		{
			"name":"avaturn_look_0"
		}
	],
	"materials":[
		{
			"doubleSided":true,
			"name":"avaturn_body_material",
			"normalTexture":{
				"index":0
			},
			"pbrMetallicRoughness":{
				"baseColorTexture":{
					"index":1
				},
				"metallicRoughnessTexture":{
					"index":2
				}
			}
		},
		{
			"alphaMode":"BLEND",
			"name":"avaturn_hair_0_material",
			"normalTexture":{
				"index":3
			},
			"pbrMetallicRoughness":{
				"baseColorTexture":{
					"index":4
				},
				"metallicFactor":0.15000000596046448,
				"metallicRoughnessTexture":{
					"index":5
				},
				"roughnessFactor":0.8500000238418579
			}
		}
	],
	"meshes":[
		{
			"name":"avaturn_body",
			"primitives":[
				{
					"attributes":{
						"POSITION":0,
						"NORMAL":1,
						"TEXCOORD_0":2
					},
					"indices":3,
					"material":0
				}
			]
		},
		{
			"name":"avaturn_hair_0",
			"primitives":[
				{
					"attributes":{
						"POSITION":4,
						"NORMAL":5,
						"TEXCOORD_0":6
					},
					"indices":7,
					"material":1
				}
			]
		}
	],
	"textures":[
		{
			"sampler":0,
			"source":0
		},
		{
			"sampler":1,
			"source":1
		},
		{
			"sampler":1,
			"source":2
		},
		{
			"sampler":0,
			"source":3
		},
		{
			"sampler":1,
			"source":4
		},
		{
			"sampler":0,
			"source":5
		}
	],
	"images":[
		{
			"mimeType":"image/jpeg",
			"name":"Image_2",
			"uri":"textures/Image_2.jpg"
		},
		{
			"mimeType":"image/jpeg",
			"name":"Image_1",
			"uri":"textures/Image_1.jpg"
		},
		{
			"mimeType":"image/jpeg",
			"name":"Image_0",
			"uri":"textures/Image_0.jpg"
		},
		{
			"mimeType":"image/jpeg",
			"name":"Image_5",
			"uri":"textures/Image_5.jpg"
		},
		{
			"mimeType":"image/png",
			"name":"Image_4",
			"uri":"textures/Image_4.png"
		},
		{
			"mimeType":"image/jpeg",
			"name":"Image_3",
			"uri":"textures/Image_3.jpg"
		}
	],
	"accessors":[
		{
			"bufferView":0,
			"componentType":5126,
			"count":3633,
			"max":[
				0.08833383768796921,
				1.8749332427978516,
				0.11044421792030334
			],
			"min":[
				-0.09019429981708527,
				1.6187829971313477,
				-0.11781574040651321
			],
			"type":"VEC3"
		},
		{
			"bufferView":1,
			"componentType":5126,
			"count":3633,
			"type":"VEC3"
		},
		{
			"bufferView":2,
			"componentType":5126,
			"count":3633,
			"type":"VEC2"
		},
		{
			"bufferView":3,
			"componentType":5123,
			"count":21030,
			"type":"SCALAR"
		},
		{
			"bufferView":4,
			"componentType":5126,
			"count":745,
			"max":[
				0.08449956774711609,
				1.8957582712173462,
				0.09312663227319717
			],
			"min":[
				-0.08598093688488007,
				1.6565275192260742,
				-0.13111627101898193
			],
			"type":"VEC3"
		},
		{
			"bufferView":5,
			"componentType":5126,
			"count":745,
			"type":"VEC3"
		},
		{
			"bufferView":6,
			"componentType":5126,
			"count":745,
			"type":"VEC2"
		},
		{
			"bufferView":7,
			"componentType":5123,
			"count":4074,
			"type":"SCALAR"
		}
	],
	"bufferViews":[
		{
			"buffer":0,
			"byteLength":43596,
			"byteOffset":0,
			"target":34962
		},
		{
			"buffer":0,
			"byteLength":43596,
			"byteOffset":43596,
			"target":34962
		},
		{
			"buffer":0,
			"byteLength":29064,
			"byteOffset":87192,
			"target":34962
		},
		{
			"buffer":0,
			"byteLength":42060,
			"byteOffset":116256,
			"target":34963
		},
		{
			"buffer":0,
			"byteLength":8940,
			"byteOffset":158316,
			"target":34962
		},
		{
			"buffer":0,
			"byteLength":8940,
			"byteOffset":167256,
			"target":34962
		},
		{
			"buffer":0,
			"byteLength":5960,
			"byteOffset":176196,
			"target":34962
		},
		{
			"buffer":0,
			"byteLength":8148,
			"byteOffset":182156,
			"target":34963
		}
	],
	"samplers":[
		{
			"magFilter":9729,
			"minFilter":9987
		},
		{
			"magFilter":9729,
			"minFilter":9987,
			"wrapS":33071,
			"wrapT":33071
		}
	],
	"buffers":[
		{
			"byteLength":190304,
			"uri":"scene.bin"
		}
	]
}
