{
	"asset":{
		"generator":"Khronos glTF Blender I/O v4.4.56",
		"version":"2.0"
	},
	"extensionsUsed":[
		"KHR_materials_specular",
		"KHR_materials_ior"
	],
	"scene":0,
	"scenes":[
		{
			"name":"Scene",
			"nodes":[
				0,
				1,
				2,
				3,
				13
			]
		}
	],
	"nodes":[
		{
			"mesh":0,
			"name":"avaturn_body",
			"scale":[
				2.5181429386138916,
				2.518141508102417,
				2.5181429386138916
			],
			"translation":[
				0.009816169738769531,
				-3.8820574283599854,
				-0.08378782868385315
			]
		},
		{
			"mesh":1,
			"name":"avaturn_hair_0",
			"scale":[
				2.5181429386138916,
				2.518141508102417,
				2.5181429386138916
			],
			"translation":[
				0.009816169738769531,
				-3.8820574283599854,
				-0.08378782868385315
			]
		},
		{
			"name":"avaturn_shoes_0"
		},
		{
			"name":"avaturn_look_0"
		},
		{
			"mesh":2,
			"name":"node_id30",
			"rotation":[
				-0.7016809582710266,
				0,
				0,
				0.7124913334846497
			],
			"scale":[
				0.35402989387512207,
				0.3540300130844116,
				0.35403022170066833
			],
			"translation":[
				0.01013404130935669,
				-0.6322932839393616,
				-0.06582780182361603
			]
		},
		{
			"mesh":3,
			"name":"node_id36",
			"scale":[
				2.999999523162842,
				3,
				2.999999523162842
			],
			"translation":[
				0.09179773181676865,
				-0.2981323003768921,
				6.575531482696533
			]
		},
		{
			"children":[
				5
			],
			"name":"node_id35",
			"rotation":[
				-0.70710688829422,
				0,
				0,
				0.7071066498756409
			],
			"scale":[
				99.5242919921875,
				99.52432250976562,
				99.5243148803711
			],
			"translation":[
				141.36734008789062,
				-24.87743377685547,
				-1280.016845703125
			]
		},
		{
			"mesh":4,
			"name":"node_id39",
			"scale":[
				2.999999523162842,
				3,
				2.999999523162842
			],
			"translation":[
				0.09179773181676865,
				-0.2981323003768921,
				6.575531482696533
			]
		},
		{
			"children":[
				7
			],
			"name":"node_id38",
			"rotation":[
				-0.70710688829422,
				0,
				0,
				0.7071066498756409
			],
			"scale":[
				99.5242919921875,
				99.52432250976562,
				99.5243148803711
			],
			"translation":[
				141.36734008789062,
				-24.87743377685547,
				-1280.016845703125
			]
		},
		{
			"mesh":5,
			"name":"node_id42"
		},
		{
			"children":[
				9
			],
			"name":"node_id41",
			"rotation":[
				-0.70710688829422,
				0,
				0,
				0.7071066498756409
			],
			"scale":[
				99.5242919921875,
				99.52432250976562,
				99.5243148803711
			],
			"translation":[
				141.36734008789062,
				-24.87743377685547,
				-1280.016845703125
			]
		},
		{
			"name":"node_id44",
			"rotation":[
				-0.70710688829422,
				0,
				0,
				0.7071066498756409
			],
			"scale":[
				99.5242919921875,
				99.52432250976562,
				99.5243148803711
			],
			"translation":[
				141.36734008789062,
				-24.87743377685547,
				-1280.016845703125
			]
		},
		{
			"children":[
				6,
				8,
				10,
				11
			],
			"name":"node_id47",
			"rotation":[
				0.007639970164746046,
				0.0317431278526783,
				0.0002771828731056303,
				0.9994668364524841
			],
			"scale":[
				0.0002651136601343751,
				0.00026511374744586647,
				0.00026511354371905327
			],
			"translation":[
				0.013652326539158821,
				0.16424670815467834,
				0.21667012572288513
			]
		},
		{
			"children":[
				4,
				12
			],
			"name":"root",
			"translation":[
				-0.03105740435421467,
				0,
				0
			]
		}
	],
	"materials":[
		{
			"doubleSided":true,
			"name":"avaturn_body_material",
			"normalTexture":{
				"index":0
			},
			"pbrMetallicRoughness":{
				"baseColorTexture":{
					"index":1
				},
				"metallicRoughnessTexture":{
					"index":2
				}
			}
		},
		{
			"alphaMode":"BLEND",
			"name":"avaturn_hair_0_material",
			"normalTexture":{
				"index":3
			},
			"pbrMetallicRoughness":{
				"baseColorTexture":{
					"index":4
				},
				"metallicFactor":0.15000000596046448,
				"metallicRoughnessTexture":{
					"index":5
				},
				"roughnessFactor":0.8500000238418579
			}
		},
		{
			"alphaMode":"MASK",
			"doubleSided":true,
			"extensions":{
				"KHR_materials_specular":{
					"specularColorTexture":{
						"index":6
					}
				},
				"KHR_materials_ior":{
					"ior":1000
				}
			},
			"name":"48",
			"pbrMetallicRoughness":{
				"baseColorTexture":{
					"index":7
				},
				"metallicFactor":0,
				"metallicRoughnessTexture":{
					"index":8
				}
			}
		},
		{
			"alphaMode":"MASK",
			"doubleSided":true,
			"extensions":{
				"KHR_materials_specular":{
					"specularColorTexture":{
						"index":9
					}
				},
				"KHR_materials_ior":{
					"ior":1000
				}
			},
			"name":"57",
			"pbrMetallicRoughness":{
				"baseColorTexture":{
					"index":10
				},
				"metallicFactor":0,
				"metallicRoughnessTexture":{
					"index":11
				}
			}
		},
		{
			"alphaMode":"MASK",
			"doubleSided":true,
			"extensions":{
				"KHR_materials_specular":{
					"specularColorTexture":{
						"index":12
					}
				},
				"KHR_materials_ior":{
					"ior":1000
				}
			},
			"name":"58",
			"pbrMetallicRoughness":{
				"baseColorTexture":{
					"index":13
				},
				"metallicFactor":0,
				"metallicRoughnessTexture":{
					"index":14
				}
			}
		},
		{
			"alphaMode":"MASK",
			"doubleSided":true,
			"extensions":{
				"KHR_materials_specular":{
					"specularColorTexture":{
						"index":15
					}
				},
				"KHR_materials_ior":{
					"ior":1000
				}
			},
			"name":"80",
			"pbrMetallicRoughness":{
				"baseColorTexture":{
					"index":16
				},
				"metallicFactor":0,
				"metallicRoughnessTexture":{
					"index":17
				}
			}
		}
	],
	"meshes":[
		{
			"name":"avaturn_body",
			"primitives":[
				{
					"attributes":{
						"POSITION":0,
						"NORMAL":1,
						"TEXCOORD_0":2,
						"COLOR_0":3,
						"COLOR_1":4
					},
					"indices":5,
					"material":0
				}
			]
		},
		{
			"name":"avaturn_hair_0",
			"primitives":[
				{
					"attributes":{
						"POSITION":6,
						"NORMAL":7,
						"TEXCOORD_0":8
					},
					"indices":9,
					"material":1
				}
			]
		},
		{
			"name":"mesh_id31",
			"primitives":[
				{
					"attributes":{
						"POSITION":10,
						"NORMAL":11,
						"TEXCOORD_0":12
					},
					"indices":13,
					"material":2
				}
			]
		},
		{
			"name":"mesh_id37",
			"primitives":[
				{
					"attributes":{
						"POSITION":14,
						"NORMAL":15,
						"TEXCOORD_0":16
					},
					"indices":17,
					"material":3
				}
			]
		},
		{
			"name":"mesh_id40",
			"primitives":[
				{
					"attributes":{
						"POSITION":18,
						"NORMAL":19,
						"TEXCOORD_0":20
					},
					"indices":21,
					"material":4
				}
			]
		},
		{
			"name":"mesh_id43",
			"primitives":[
				{
					"attributes":{
						"POSITION":22,
						"NORMAL":23,
						"TEXCOORD_0":24
					},
					"indices":25,
					"material":5
				}
			]
		}
	],
	"textures":[
		{
			"sampler":0,
			"source":0
		},
		{
			"sampler":1,
			"source":1
		},
		{
			"sampler":1,
			"source":2
		},
		{
			"sampler":0,
			"source":3
		},
		{
			"sampler":1,
			"source":4
		},
		{
			"sampler":0,
			"source":5
		},
		{
			"sampler":0,
			"source":6
		},
		{
			"sampler":0,
			"source":7
		},
		{
			"sampler":0,
			"source":8
		},
		{
			"sampler":0,
			"source":9
		},
		{
			"sampler":0,
			"source":10
		},
		{
			"sampler":0,
			"source":11
		},
		{
			"sampler":0,
			"source":12
		},
		{
			"sampler":0,
			"source":13
		},
		{
			"sampler":0,
			"source":14
		},
		{
			"sampler":0,
			"source":15
		},
		{
			"sampler":0,
			"source":16
		},
		{
			"sampler":0,
			"source":17
		}
	],
	"images":[
		{
			"mimeType":"image/jpeg",
			"name":"Image_2",
			"uri":"textures/Image_2.jpg"
		},
		{
			"mimeType":"image/jpeg",
			"name":"Image_1",
			"uri":"textures/Image_1.jpg"
		},
		{
			"mimeType":"image/jpeg",
			"name":"Image_0",
			"uri":"textures/Image_0.jpg"
		},
		{
			"mimeType":"image/jpeg",
			"name":"Image_5",
			"uri":"textures/Image_5.jpg"
		},
		{
			"mimeType":"image/png",
			"name":"Image_4",
			"uri":"textures/Image_4.png"
		},
		{
			"mimeType":"image/jpeg",
			"name":"Image_3",
			"uri":"textures/Image_3.jpg"
		},
		{
			"mimeType":"image/png",
			"name":"Image_9",
			"uri":"textures/Image_9.png"
		},
		{
			"mimeType":"image/png",
			"name":"Image_8",
			"uri":"textures/Image_8.png"
		},
		{
			"mimeType":"image/png",
			"name":"Image_9",
			"uri":"textures/Image_9-1.png"
		},
		{
			"mimeType":"image/png",
			"name":"Image_13",
			"uri":"textures/Image_13.png"
		},
		{
			"mimeType":"image/png",
			"name":"Image_12",
			"uri":"textures/Image_12.png"
		},
		{
			"mimeType":"image/png",
			"name":"Image_13",
			"uri":"textures/Image_13-1.png"
		},
		{
			"mimeType":"image/png",
			"name":"Image_17",
			"uri":"textures/Image_17.png"
		},
		{
			"mimeType":"image/png",
			"name":"Image_16",
			"uri":"textures/Image_16.png"
		},
		{
			"mimeType":"image/png",
			"name":"Image_17",
			"uri":"textures/Image_17-1.png"
		},
		{
			"mimeType":"image/png",
			"name":"Image_5",
			"uri":"textures/Image_5.png"
		},
		{
			"mimeType":"image/png",
			"name":"Image_4",
			"uri":"textures/Image_4-1.png"
		},
		{
			"mimeType":"image/png",
			"name":"Image_5",
			"uri":"textures/Image_5-1.png"
		}
	],
	"accessors":[
		{
			"bufferView":0,
			"componentType":5126,
			"count":3693,
			"max":[
				0.08833383768796921,
				1.8749332427978516,
				0.11044421792030334
			],
			"min":[
				-0.09019429981708527,
				1.436773419380188,
				-0.11781574040651321
			],
			"type":"VEC3"
		},
		{
			"bufferView":1,
			"componentType":5126,
			"count":3693,
			"type":"VEC3"
		},
		{
			"bufferView":2,
			"componentType":5126,
			"count":3693,
			"type":"VEC2"
		},
		{
			"bufferView":3,
			"componentType":5121,
			"count":3693,
			"normalized":true,
			"type":"VEC4"
		},
		{
			"bufferView":4,
			"componentType":5123,
			"count":3693,
			"normalized":true,
			"type":"VEC4"
		},
		{
			"bufferView":5,
			"componentType":5123,
			"count":21336,
			"type":"SCALAR"
		},
		{
			"bufferView":6,
			"componentType":5126,
			"count":745,
			"max":[
				0.08449956774711609,
				1.8957582712173462,
				0.09312663227319717
			],
			"min":[
				-0.08598093688488007,
				1.6565275192260742,
				-0.13111627101898193
			],
			"type":"VEC3"
		},
		{
			"bufferView":7,
			"componentType":5126,
			"count":745,
			"type":"VEC3"
		},
		{
			"bufferView":8,
			"componentType":5126,
			"count":745,
			"type":"VEC2"
		},
		{
			"bufferView":9,
			"componentType":5123,
			"count":4074,
			"type":"SCALAR"
		},
		{
			"bufferView":10,
			"componentType":5126,
			"count":1356,
			"max":[
				1.5177559852600098,
				2.23110294342041,
				4.2370758056640625
			],
			"min":[
				-1.5189800262451172,
				-0.9380754828453064,
				-0.1015418991446495
			],
			"type":"VEC3"
		},
		{
			"bufferView":11,
			"componentType":5126,
			"count":1356,
			"type":"VEC3"
		},
		{
			"bufferView":12,
			"componentType":5126,
			"count":1356,
			"type":"VEC2"
		},
		{
			"bufferView":13,
			"componentType":5123,
			"count":3045,
			"type":"SCALAR"
		},
		{
			"bufferView":14,
			"componentType":5126,
			"count":164,
			"max":[
				0.4515089988708496,
				-0.10874699801206589,
				-0.366784006357193
			],
			"min":[
				-0.46126800775527954,
				-1.0704879760742188,
				-1.0391230583190918
			],
			"type":"VEC3"
		},
		{
			"bufferView":15,
			"componentType":5126,
			"count":164,
			"type":"VEC3"
		},
		{
			"bufferView":16,
			"componentType":5126,
			"count":164,
			"type":"VEC2"
		},
		{
			"bufferView":17,
			"componentType":5123,
			"count":666,
			"type":"SCALAR"
		},
		{
			"bufferView":18,
			"componentType":5126,
			"count":16,
			"max":[
				0.7359949946403503,
				-0.5031350255012512,
				0.5728129744529724
			],
			"min":[
				0.32298699021339417,
				-0.690742015838623,
				0.4118030071258545
			],
			"type":"VEC3"
		},
		{
			"bufferView":19,
			"componentType":5126,
			"count":16,
			"type":"VEC3"
		},
		{
			"bufferView":20,
			"componentType":5126,
			"count":16,
			"type":"VEC2"
		},
		{
			"bufferView":21,
			"componentType":5123,
			"count":36,
			"type":"SCALAR"
		},
		{
			"bufferView":22,
			"componentType":5126,
			"count":20,
			"max":[
				0.4638890027999878,
				-0.5049329996109009,
				0.5915769934654236
			],
			"min":[
				-0.7392629981040955,
				-0.6919299960136414,
				0.42342299222946167
			],
			"type":"VEC3"
		},
		{
			"bufferView":23,
			"componentType":5126,
			"count":20,
			"type":"VEC3"
		},
		{
			"bufferView":24,
			"componentType":5126,
			"count":20,
			"type":"VEC2"
		},
		{
			"bufferView":25,
			"componentType":5123,
			"count":48,
			"type":"SCALAR"
		}
	],
	"bufferViews":[
		{
			"buffer":0,
			"byteLength":44316,
			"byteOffset":0,
			"target":34962
		},
		{
			"buffer":0,
			"byteLength":44316,
			"byteOffset":44316,
			"target":34962
		},
		{
			"buffer":0,
			"byteLength":29544,
			"byteOffset":88632,
			"target":34962
		},
		{
			"buffer":0,
			"byteLength":14772,
			"byteOffset":118176,
			"target":34962
		},
		{
			"buffer":0,
			"byteLength":29544,
			"byteOffset":132948,
			"target":34962
		},
		{
			"buffer":0,
			"byteLength":42672,
			"byteOffset":162492,
			"target":34963
		},
		{
			"buffer":0,
			"byteLength":8940,
			"byteOffset":205164,
			"target":34962
		},
		{
			"buffer":0,
			"byteLength":8940,
			"byteOffset":214104,
			"target":34962
		},
		{
			"buffer":0,
			"byteLength":5960,
			"byteOffset":223044,
			"target":34962
		},
		{
			"buffer":0,
			"byteLength":8148,
			"byteOffset":229004,
			"target":34963
		},
		{
			"buffer":0,
			"byteLength":16272,
			"byteOffset":237152,
			"target":34962
		},
		{
			"buffer":0,
			"byteLength":16272,
			"byteOffset":253424,
			"target":34962
		},
		{
			"buffer":0,
			"byteLength":10848,
			"byteOffset":269696,
			"target":34962
		},
		{
			"buffer":0,
			"byteLength":6090,
			"byteOffset":280544,
			"target":34963
		},
		{
			"buffer":0,
			"byteLength":1968,
			"byteOffset":286636,
			"target":34962
		},
		{
			"buffer":0,
			"byteLength":1968,
			"byteOffset":288604,
			"target":34962
		},
		{
			"buffer":0,
			"byteLength":1312,
			"byteOffset":290572,
			"target":34962
		},
		{
			"buffer":0,
			"byteLength":1332,
			"byteOffset":291884,
			"target":34963
		},
		{
			"buffer":0,
			"byteLength":192,
			"byteOffset":293216,
			"target":34962
		},
		{
			"buffer":0,
			"byteLength":192,
			"byteOffset":293408,
			"target":34962
		},
		{
			"buffer":0,
			"byteLength":128,
			"byteOffset":293600,
			"target":34962
		},
		{
			"buffer":0,
			"byteLength":72,
			"byteOffset":293728,
			"target":34963
		},
		{
			"buffer":0,
			"byteLength":240,
			"byteOffset":293800,
			"target":34962
		},
		{
			"buffer":0,
			"byteLength":240,
			"byteOffset":294040,
			"target":34962
		},
		{
			"buffer":0,
			"byteLength":160,
			"byteOffset":294280,
			"target":34962
		},
		{
			"buffer":0,
			"byteLength":96,
			"byteOffset":294440,
			"target":34963
		}
	],
	"samplers":[
		{
			"magFilter":9729,
			"minFilter":9987
		},
		{
			"magFilter":9729,
			"minFilter":9987,
			"wrapS":33071,
			"wrapT":33071
		}
	],
	"buffers":[
		{
			"byteLength":294536,
			"uri":"scene.bin"
		}
	]
}
